<svg xmlns="http://www.w3.org/2000/svg" width="45.989" height="46" viewBox="0 0 45.989 46"><g id="_22-guarantee" data-name="22-guarantee" transform="translate(-4.167 -4.21)"><g id="linear_color" data-name="linear color" transform="translate(4.167 4.21)"><path id="Path_2" data-name="Path 2" d="M119.392,197.5h-6.939V193.57a6.457,6.457,0,0,0-.7-3.338c-.867-1.481-2.475-2.231-4.781-2.231a1.1,1.1,0,0,0-1.1,1.1v5.625l-1.962,3.188-2.421,1.582v-.9a1.1,1.1,0,0,0-1.1-1.1H93.1a1.1,1.1,0,0,0-1.1,1.1v17.531a1.1,1.1,0,0,0,1.1,1.1h7.3a1.094,1.094,0,0,0,.935-.527,3.991,3.991,0,0,0,1.986.527h14.609a3.285,3.285,0,0,0,2.753-5.08,3.382,3.382,0,0,0,.3-.267,3.282,3.282,0,0,0,.428-4.116,3.383,3.383,0,0,0,.3-.267,3.283,3.283,0,0,0,.123-4.514,3.287,3.287,0,0,0-2.448-5.48ZM99.3,215.027H94.191v-15.34H99.3Zm19.4-.322a1.092,1.092,0,0,1-.776.322H103.322A1.828,1.828,0,0,1,101.5,213.2V202.107l3.978-2.6a1.109,1.109,0,0,0,.48-.73l1.954-3.175a1.1,1.1,0,0,0,.162-.575v-4.757c2.007.341,2.191,1.7,2.191,3.3v5.022a1.1,1.1,0,0,0,1.1,1.1h8.035a1.1,1.1,0,1,1,0,2.191H117.2a1.1,1.1,0,1,0,0,2.191h2.191a1.1,1.1,0,1,1,0,2.191H117.2a1.1,1.1,0,1,0,0,2.191h1.461a1.1,1.1,0,1,1,0,2.191H117.2a1.1,1.1,0,0,0,0,2.191h.73a1.1,1.1,0,0,1,.776,1.87Z" transform="translate(-83.98 -171.219)"></path><circle id="Ellipse_3" data-name="Ellipse 3" cx="1.096" cy="1.096" r="1.096" transform="translate(11.672 40.978)"></circle><path id="Path_3" data-name="Path 3" d="M176.29,13.543l-.667,3.885a1.1,1.1,0,0,0,1.59,1.155l3.489-1.834,3.489,1.834a1.1,1.1,0,0,0,1.59-1.155l-.667-3.885,2.823-2.751a1.1,1.1,0,0,0-.607-1.869l-3.9-.567-1.745-3.535a1.1,1.1,0,0,0-1.965,0l-1.745,3.535-3.9.567a1.1,1.1,0,0,0-.607,1.869Zm2.571-3.1a1.1,1.1,0,0,0,.825-.6L180.7,7.782l1.017,2.061a1.1,1.1,0,0,0,.825.6l2.274.33-1.645,1.6a1.1,1.1,0,0,0-.315.97l.388,2.264-2.034-1.069a1.1,1.1,0,0,0-1.02,0l-2.034,1.069.388-2.264a1.1,1.1,0,0,0-.315-.97l-1.645-1.6Z" transform="translate(-157.708 -4.21)"></path><path id="Path_4" data-name="Path 4" d="M357.873,108.31l-3.154-2.365.16-3.939a1.1,1.1,0,0,0-1.726-.94l-3.223,2.269-3.7-1.37a1.1,1.1,0,0,0-1.428,1.35l1.161,3.767-2.445,3.092a1.1,1.1,0,0,0,.843,1.775l3.941.059,2.185,3.281a1.1,1.1,0,0,0,1.949-.253l1.275-3.73,3.8-1.065a1.1,1.1,0,0,0,.361-1.932Zm-5.3,1.042a1.1,1.1,0,0,0-.741.7l-.743,2.175-1.274-1.912a1.1,1.1,0,0,0-.9-.488l-2.3-.035,1.425-1.8a1.1,1.1,0,0,0,.187-1l-.677-2.2,2.155.8a1.1,1.1,0,0,0,1.011-.131l1.879-1.322-.093,2.3a1.1,1.1,0,0,0,.437.921l1.838,1.379Z" transform="translate(-312.323 -92.04)"></path><path id="Path_5" data-name="Path 5" d="M18.113,111.949a1.1,1.1,0,0,0,.843-1.775l-2.445-3.092,1.161-3.767a1.1,1.1,0,0,0-1.428-1.35l-3.7,1.37-3.223-2.269a1.1,1.1,0,0,0-1.726.94l.16,3.939L4.606,108.31a1.1,1.1,0,0,0,.361,1.932l3.8,1.065,1.274,3.73a1.1,1.1,0,0,0,1.949.253l2.186-3.281Zm-5.446-1.634-1.274,1.912-.743-2.174a1.1,1.1,0,0,0-.741-.7L7.7,108.731l1.838-1.379a1.1,1.1,0,0,0,.437-.921l-.093-2.3,1.879,1.323a1.1,1.1,0,0,0,1.011.131l2.155-.8-.677,2.2a1.1,1.1,0,0,0,.187,1l1.425,1.8-2.3.035a1.1,1.1,0,0,0-.9.488Z" transform="translate(-4.167 -92.04)"></path></g></g></svg>