<svg xmlns="http://www.w3.org/2000/svg" width="36.71" height="40.86" viewBox="0 0 36.71 40.86"><g id="support" transform="translate(-26)"><g id="Group_6" data-name="Group 6" transform="translate(52.336 31.603)"><g id="Group_5" data-name="Group 5"><path id="Path_127" data-name="Path 127" d="M356.8,396a.8.8,0,1,0,.8.8A.8.8,0,0,0,356.8,396Z" transform="translate(-356 -396)"></path></g></g><g id="Group_8" data-name="Group 8" transform="translate(26)"><g id="Group_7" data-name="Group 7" transform="translate(0)"><path id="Path_128" data-name="Path 128" d="M55.1,29.022l-3.793-1.264-1.362-2.724a8.741,8.741,0,0,0,2.366-4.624l.17-1.018h1.452A2.4,2.4,0,0,0,56.326,17V11.971a11.971,11.971,0,0,0-23.942,0V17a2.4,2.4,0,0,0,1.6,2.257v.935a2.4,2.4,0,0,0,2.394,2.394h.7a8.658,8.658,0,0,0,1.339,2.073c.113.13.231.256.352.378L37.4,27.758l-3.793,1.264A11.763,11.763,0,0,0,26,40.062a.8.8,0,0,0,.8.8H61.912a.8.8,0,0,0,.8-.8A11.763,11.763,0,0,0,55.1,29.022ZM54.73,17a.8.8,0,0,1-.8.8H52.714c.2-1.571.338-3.244.392-4.89,0-.046,0-.092,0-.137H54.73Zm-19.951.8a.8.8,0,0,1-.8-.8v-4.23H35.6q0,.125.009.251v.009h0c.056,1.6.189,3.231.388,4.767H34.779Zm1.6,3.192a.8.8,0,0,1-.8-.8v-.8h.654l.17,1.018c.032.194.072.386.118.578Zm-.8-9.816H34.011a10.375,10.375,0,0,1,20.689,0H53.133A8.083,8.083,0,0,0,45.07,3.192H43.641A8.083,8.083,0,0,0,35.578,11.173Zm8.063-6.384h1.429a6.489,6.489,0,0,1,6.468,6.5c0,.251,0,.47-.006.669,0,0,0,.005,0,.008l-1-.143a12.824,12.824,0,0,1-7.21-3.6.8.8,0,0,0-.564-.234,7.22,7.22,0,0,0-5.551,2.626A6.487,6.487,0,0,1,43.641,4.788Zm-5.467,16.2a45.616,45.616,0,0,1-.958-7.745l1.074-1.432a5.617,5.617,0,0,1,4.154-2.226A14.435,14.435,0,0,0,50.308,13.4l1.175.168c-.079,1.667-.239,3.339-.469,4.878v0c-.073.495-.131.813-.278,1.7A6.779,6.779,0,0,1,45.924,25.6a6.279,6.279,0,0,1-7.049-3.015H40.5a2.4,2.4,0,0,0,2.257,1.6h1.6a2.394,2.394,0,1,0,0-4.788h-1.6a2.4,2.4,0,0,0-2.258,1.6Zm4.519,6.226a8,8,0,0,0,2.968.067l-1.41,1.491Zm.461,2.718L40.622,32.61a30.407,30.407,0,0,1-1.787-4.143l.951-1.9ZM48.79,26.3l1.086,2.171a30.4,30.4,0,0,1-1.787,4.145L45.379,29.9Zm-6.829-4.509a.8.8,0,0,1,.8-.8h1.6a.8.8,0,0,1,0,1.6h-1.6A.8.8,0,0,1,41.961,21.787ZM27.628,39.264a10.085,10.085,0,0,1,6.488-8.728l3.359-1.12a31.991,31.991,0,0,0,2.272,4.927l0,.008h0a32,32,0,0,0,2.184,3.336l.982,1.576Zm16.727-.711-1.082-1.738q-.018-.029-.039-.057a30.428,30.428,0,0,1-1.8-2.686l2.846-3.01,3,3a30.4,30.4,0,0,1-1.8,2.7C45.437,36.81,45.493,36.728,44.355,38.553Zm1.437.711.982-1.576a31.989,31.989,0,0,0,2.2-3.362l.012-.021v0a31.965,31.965,0,0,0,2.248-4.885l3.359,1.12a10.085,10.085,0,0,1,6.488,8.728Z" transform="translate(-26)"></path></g></g><g id="Group_10" data-name="Group 10" transform="translate(55.14 33.126)"><g id="Group_9" data-name="Group 9" transform="translate(0)"><path id="Path_129" data-name="Path 129" d="M394.683,418a7.98,7.98,0,0,0-2.259-2.743.8.8,0,0,0-.973,1.265,6.373,6.373,0,0,1,1.8,2.191.8.8,0,0,0,1.428-.713Z" transform="translate(-391.139 -415.088)"></path></g></g></g></svg>