<svg xmlns="http://www.w3.org/2000/svg" width="41.232" height="36.5" viewBox="0 0 41.232 36.5"><g id="transport" transform="translate(-0.251 -1.944)"><path id="Path_6" data-name="Path 6" d="M41.4,21.463l-3.692-8.51a3.372,3.372,0,0,0-3.093-2.031h-7.94V5.7a3.76,3.76,0,0,0-3.749-3.755H4.006A3.76,3.76,0,0,0,.251,5.7V30.3a4.46,4.46,0,0,0,4.456,4.455H7.065a4.773,4.773,0,0,0,9.294,0H27.137a4.768,4.768,0,0,0,9.086.653h1.6a3.663,3.663,0,0,0,3.658-3.657V21.874a1.035,1.035,0,0,0-.08-.411Zm-9.616-8.444h2.831a1.271,1.271,0,0,1,1.169.765l3.054,7.039H34.1a2.318,2.318,0,0,1-2.315-2.315Zm-20.5-8.978h5.855V7.468a.9.9,0,0,1-.9.9H12.183a.9.9,0,0,1-.895-.9ZM2.348,5.7A1.66,1.66,0,0,1,4.006,4.041H9.191V7.468a3,3,0,0,0,2.991,2.993h4.065A3,3,0,0,0,19.24,7.468V4.041h3.689A1.658,1.658,0,0,1,24.586,5.7l-.014,18.509a.256.256,0,0,1-.256.256H2.348Zm9.365,30.688a2.676,2.676,0,0,1,0-5.351,2.676,2.676,0,0,1,0,5.351Zm20.071,0a2.676,2.676,0,0,1,0-5.351,2.676,2.676,0,0,1,0,5.351Zm7.606-4.631a1.564,1.564,0,0,1-1.561,1.56v0H36.516c-.439-5.384-8.2-5.911-9.378-.653H16.361a4.762,4.762,0,0,0-9.294,0H4.707A2.362,2.362,0,0,1,2.348,30.3V26.56H24.316a2.352,2.352,0,0,0,2.353-2.343l.008-11.2H29.69v5.492A4.417,4.417,0,0,0,34.1,22.922H39.39Z"></path><path id="Path_7" data-name="Path 7" d="M10.084,13.324H4.419a1.049,1.049,0,0,0,0,2.1h5.667A1.049,1.049,0,0,0,10.084,13.324Z" transform="translate(1.249 4.527)"></path></g></svg>